<?xml version="1.0" encoding="UTF-8"?>
<svg width="711" height="2911" xmlns="http://www.w3.org/2000/svg"><rect xmlns="http://www.w3.org/2000/svg" x="92" y="20" width="75" height="30" rx="15" ry="15" fill="none" stroke="black" stroke-width="2"/><text xmlns="http://www.w3.org/2000/svg" x="130" y="42" style="text-anchor:middle" font-size="12">START</text><polyline xmlns="http://www.w3.org/2000/svg" points="130,50,130,70&quot; fill=&quot;none&quot; stroke=&quot;black&quot; stroke-width=&quot;2&quot;/&gt;" fill="none" stroke="black" stroke-width="2"/><rect xmlns="http://www.w3.org/2000/svg" x="92" y="2857" width="75" height="30" rx="15" ry="15" fill="none" stroke="black" stroke-width="2"/><text xmlns="http://www.w3.org/2000/svg" x="130" y="2880" style="text-anchor:middle" font-size="12">END</text><rect xmlns="http://www.w3.org/2000/svg" x="80" y="70" width="611" height="77" fill="none" stroke="black" stroke-width="2"/><text xmlns="http://www.w3.org/2000/svg" x="84" y="87" width="611" height="77" style="text-anchor:left" font-size="12">int number_of_runners;</text><text xmlns="http://www.w3.org/2000/svg" x="84" y="99" width="611" height="77" style="text-anchor:left" font-size="12">cout &lt;&lt; "Number of runners: ";</text><text xmlns="http://www.w3.org/2000/svg" x="84" y="111" width="611" height="77" style="text-anchor:left" font-size="12">cin &gt;&gt; number_of_runners;</text><text xmlns="http://www.w3.org/2000/svg" x="84" y="123" width="611" height="77" style="text-anchor:left" font-size="12">string name[number_of_runners], choice, search;</text><text xmlns="http://www.w3.org/2000/svg" x="84" y="135" width="611" height="77" style="text-anchor:left" font-size="12">double miles[number_of_runners][7],total_miles[number_of_runners], sum, average, average_each_day[8];</text><polyline xmlns="http://www.w3.org/2000/svg" points="130,147,130,167&quot; fill=&quot;none&quot; stroke=&quot;black&quot; stroke-width=&quot;2&quot;/&gt;" fill="none" stroke="black" stroke-width="2"/><polyline xmlns="http://www.w3.org/2000/svg" points="80,167,390,167,420,182,390,197,80,197,80,167&quot; fill=&quot;none&quot; stroke=&quot;black&quot; stroke-width=&quot;2&quot;/&gt;" fill="none" stroke="black" stroke-width="2"/><text xmlns="http://www.w3.org/2000/svg" x="242" y="188" style="text-anchor:middle" font-size="12">for (int i = 0; i &lt; number_of_runners; i++)</text><polyline xmlns="http://www.w3.org/2000/svg" points="130,197,130,217&quot; fill=&quot;none&quot; stroke=&quot;black&quot; stroke-width=&quot;2&quot;/&gt;" fill="none" stroke="black" stroke-width="2"/><polyline xmlns="http://www.w3.org/2000/svg" points="420,182,440,182,440,679,130,679,130,699&quot; fill=&quot;none&quot; stroke=&quot;black&quot; stroke-width=&quot;2&quot;/&gt;" fill="none" stroke="black" stroke-width="2"/><polyline xmlns="http://www.w3.org/2000/svg" points="440,436,438,430,442,430,440,436,440,430&quot; fill=&quot;none&quot; stroke=&quot;black&quot; stroke-width=&quot;2&quot;/&gt;" fill="none" stroke="black" stroke-width="2"/><polyline xmlns="http://www.w3.org/2000/svg" points="130,639,130,659,40,659,40,182,80,182&quot; fill=&quot;none&quot; stroke=&quot;black&quot; stroke-width=&quot;2&quot;/&gt;" fill="none" stroke="black" stroke-width="2"/><polyline xmlns="http://www.w3.org/2000/svg" points="40,430,38,436,42,436,40,430,40,436&quot; fill=&quot;none&quot; stroke=&quot;black&quot; stroke-width=&quot;2&quot;/&gt;" fill="none" stroke="black" stroke-width="2"/><rect xmlns="http://www.w3.org/2000/svg" x="80" y="217" width="122" height="36" fill="none" stroke="black" stroke-width="2"/><text xmlns="http://www.w3.org/2000/svg" x="84" y="232" width="122" height="36" style="text-anchor:left" font-size="12">cout &lt;&lt; "Name: ";</text><text xmlns="http://www.w3.org/2000/svg" x="84" y="244" width="122" height="36" style="text-anchor:left" font-size="12">cin &gt;&gt; name[i];</text><polyline xmlns="http://www.w3.org/2000/svg" points="130,253,130,273&quot; fill=&quot;none&quot; stroke=&quot;black&quot; stroke-width=&quot;2&quot;/&gt;" fill="none" stroke="black" stroke-width="2"/><polyline xmlns="http://www.w3.org/2000/svg" points="80,273,370,273,400,288,370,303,80,303,80,273&quot; fill=&quot;none&quot; stroke=&quot;black&quot; stroke-width=&quot;2&quot;/&gt;" fill="none" stroke="black" stroke-width="2"/><text xmlns="http://www.w3.org/2000/svg" x="232" y="294" style="text-anchor:middle" font-size="12">for (int j = 0; j &lt; 7; j++)</text><polyline xmlns="http://www.w3.org/2000/svg" points="130,303,130,323&quot; fill=&quot;none&quot; stroke=&quot;black&quot; stroke-width=&quot;2&quot;/&gt;" fill="none" stroke="black" stroke-width="2"/><polyline xmlns="http://www.w3.org/2000/svg" points="400,288,420,288,420,399,130,399,130,419&quot; fill=&quot;none&quot; stroke=&quot;black&quot; stroke-width=&quot;2&quot;/&gt;" fill="none" stroke="black" stroke-width="2"/><polyline xmlns="http://www.w3.org/2000/svg" points="420,349,418,343,422,343,420,349,420,343&quot; fill=&quot;none&quot; stroke=&quot;black&quot; stroke-width=&quot;2&quot;/&gt;" fill="none" stroke="black" stroke-width="2"/><polyline xmlns="http://www.w3.org/2000/svg" points="130,359,130,379,60,379,60,288,80,288&quot; fill=&quot;none&quot; stroke=&quot;black&quot; stroke-width=&quot;2&quot;/&gt;" fill="none" stroke="black" stroke-width="2"/><polyline xmlns="http://www.w3.org/2000/svg" points="60,343,58,349,62,349,60,343,60,349&quot; fill=&quot;none&quot; stroke=&quot;black&quot; stroke-width=&quot;2&quot;/&gt;" fill="none" stroke="black" stroke-width="2"/><rect xmlns="http://www.w3.org/2000/svg" x="80" y="323" width="320" height="36" fill="none" stroke="black" stroke-width="2"/><text xmlns="http://www.w3.org/2000/svg" x="84" y="338" width="320" height="36" style="text-anchor:left" font-size="12">cout &lt;&lt; "Number of miles runs in day " &lt;&lt; j + 1 &lt;&lt; ": ";</text><text xmlns="http://www.w3.org/2000/svg" x="84" y="350" width="320" height="36" style="text-anchor:left" font-size="12">cin &gt;&gt; miles[i][j];</text><polyline xmlns="http://www.w3.org/2000/svg" points="130,359,130,379&quot; fill=&quot;none&quot; stroke=&quot;black&quot; stroke-width=&quot;2&quot;/&gt;" fill="none" stroke="black" stroke-width="2"/><rect xmlns="http://www.w3.org/2000/svg" x="80" y="419" width="100" height="30" fill="none" stroke="black" stroke-width="2"/><text xmlns="http://www.w3.org/2000/svg" x="84" y="437" width="100" height="30" style="text-anchor:left" font-size="12">sum = 0;</text><polyline xmlns="http://www.w3.org/2000/svg" points="130,449,130,469&quot; fill=&quot;none&quot; stroke=&quot;black&quot; stroke-width=&quot;2&quot;/&gt;" fill="none" stroke="black" stroke-width="2"/><polyline xmlns="http://www.w3.org/2000/svg" points="80,469,202,469,232,484,202,499,80,499,80,469&quot; fill=&quot;none&quot; stroke=&quot;black&quot; stroke-width=&quot;2&quot;/&gt;" fill="none" stroke="black" stroke-width="2"/><text xmlns="http://www.w3.org/2000/svg" x="148" y="490" style="text-anchor:middle" font-size="12">for (int j = 0; j &lt; 7; j++)</text><polyline xmlns="http://www.w3.org/2000/svg" points="130,499,130,519&quot; fill=&quot;none&quot; stroke=&quot;black&quot; stroke-width=&quot;2&quot;/&gt;" fill="none" stroke="black" stroke-width="2"/><polyline xmlns="http://www.w3.org/2000/svg" points="232,484,252,484,252,589,130,589,130,609&quot; fill=&quot;none&quot; stroke=&quot;black&quot; stroke-width=&quot;2&quot;/&gt;" fill="none" stroke="black" stroke-width="2"/><polyline xmlns="http://www.w3.org/2000/svg" points="252,542,250,536,254,536,252,542,252,536&quot; fill=&quot;none&quot; stroke=&quot;black&quot; stroke-width=&quot;2&quot;/&gt;" fill="none" stroke="black" stroke-width="2"/><polyline xmlns="http://www.w3.org/2000/svg" points="130,549,130,569,60,569,60,484,80,484&quot; fill=&quot;none&quot; stroke=&quot;black&quot; stroke-width=&quot;2&quot;/&gt;" fill="none" stroke="black" stroke-width="2"/><polyline xmlns="http://www.w3.org/2000/svg" points="60,536,58,542,62,542,60,536,60,542&quot; fill=&quot;none&quot; stroke=&quot;black&quot; stroke-width=&quot;2&quot;/&gt;" fill="none" stroke="black" stroke-width="2"/><rect xmlns="http://www.w3.org/2000/svg" x="80" y="519" width="152" height="30" fill="none" stroke="black" stroke-width="2"/><text xmlns="http://www.w3.org/2000/svg" x="84" y="537" width="152" height="30" style="text-anchor:left" font-size="12">sum = sum + miles[i][j];</text><polyline xmlns="http://www.w3.org/2000/svg" points="130,549,130,569&quot; fill=&quot;none&quot; stroke=&quot;black&quot; stroke-width=&quot;2&quot;/&gt;" fill="none" stroke="black" stroke-width="2"/><rect xmlns="http://www.w3.org/2000/svg" x="80" y="609" width="135" height="30" fill="none" stroke="black" stroke-width="2"/><text xmlns="http://www.w3.org/2000/svg" x="84" y="627" width="135" height="30" style="text-anchor:left" font-size="12">total_miles[i] = sum;</text><polyline xmlns="http://www.w3.org/2000/svg" points="130,639,130,659&quot; fill=&quot;none&quot; stroke=&quot;black&quot; stroke-width=&quot;2&quot;/&gt;" fill="none" stroke="black" stroke-width="2"/><polyline xmlns="http://www.w3.org/2000/svg" points="80,699,349,699,379,714,349,729,80,729,80,699&quot; fill=&quot;none&quot; stroke=&quot;black&quot; stroke-width=&quot;2&quot;/&gt;" fill="none" stroke="black" stroke-width="2"/><text xmlns="http://www.w3.org/2000/svg" x="222" y="720" style="text-anchor:middle" font-size="12">for (int i = 0; i &lt; 8; i++)</text><polyline xmlns="http://www.w3.org/2000/svg" points="130,729,130,749&quot; fill=&quot;none&quot; stroke=&quot;black&quot; stroke-width=&quot;2&quot;/&gt;" fill="none" stroke="black" stroke-width="2"/><polyline xmlns="http://www.w3.org/2000/svg" points="379,714,399,714,399,1009,130,1009,130,1029&quot; fill=&quot;none&quot; stroke=&quot;black&quot; stroke-width=&quot;2&quot;/&gt;" fill="none" stroke="black" stroke-width="2"/><polyline xmlns="http://www.w3.org/2000/svg" points="399,867,398,861,400,861,399,867,399,861&quot; fill=&quot;none&quot; stroke=&quot;black&quot; stroke-width=&quot;2&quot;/&gt;" fill="none" stroke="black" stroke-width="2"/><polyline xmlns="http://www.w3.org/2000/svg" points="130,969,130,989,40,989,40,714,80,714&quot; fill=&quot;none&quot; stroke=&quot;black&quot; stroke-width=&quot;2&quot;/&gt;" fill="none" stroke="black" stroke-width="2"/><polyline xmlns="http://www.w3.org/2000/svg" points="40,861,38,867,42,867,40,861,40,867&quot; fill=&quot;none&quot; stroke=&quot;black&quot; stroke-width=&quot;2&quot;/&gt;" fill="none" stroke="black" stroke-width="2"/><rect xmlns="http://www.w3.org/2000/svg" x="80" y="749" width="100" height="30" fill="none" stroke="black" stroke-width="2"/><text xmlns="http://www.w3.org/2000/svg" x="84" y="767" width="100" height="30" style="text-anchor:left" font-size="12">sum = 0;</text><polyline xmlns="http://www.w3.org/2000/svg" points="130,779,130,799&quot; fill=&quot;none&quot; stroke=&quot;black&quot; stroke-width=&quot;2&quot;/&gt;" fill="none" stroke="black" stroke-width="2"/><polyline xmlns="http://www.w3.org/2000/svg" points="80,799,202,799,232,814,202,829,80,829,80,799&quot; fill=&quot;none&quot; stroke=&quot;black&quot; stroke-width=&quot;2&quot;/&gt;" fill="none" stroke="black" stroke-width="2"/><text xmlns="http://www.w3.org/2000/svg" x="148" y="820" style="text-anchor:middle" font-size="12">for (int j = 0; j &lt; number_of_runners; j++)</text><polyline xmlns="http://www.w3.org/2000/svg" points="130,829,130,849&quot; fill=&quot;none&quot; stroke=&quot;black&quot; stroke-width=&quot;2&quot;/&gt;" fill="none" stroke="black" stroke-width="2"/><polyline xmlns="http://www.w3.org/2000/svg" points="232,814,252,814,252,919,130,919,130,939&quot; fill=&quot;none&quot; stroke=&quot;black&quot; stroke-width=&quot;2&quot;/&gt;" fill="none" stroke="black" stroke-width="2"/><polyline xmlns="http://www.w3.org/2000/svg" points="252,872,250,866,254,866,252,872,252,866&quot; fill=&quot;none&quot; stroke=&quot;black&quot; stroke-width=&quot;2&quot;/&gt;" fill="none" stroke="black" stroke-width="2"/><polyline xmlns="http://www.w3.org/2000/svg" points="130,879,130,899,60,899,60,814,80,814&quot; fill=&quot;none&quot; stroke=&quot;black&quot; stroke-width=&quot;2&quot;/&gt;" fill="none" stroke="black" stroke-width="2"/><polyline xmlns="http://www.w3.org/2000/svg" points="60,866,58,872,62,872,60,866,60,872&quot; fill=&quot;none&quot; stroke=&quot;black&quot; stroke-width=&quot;2&quot;/&gt;" fill="none" stroke="black" stroke-width="2"/><rect xmlns="http://www.w3.org/2000/svg" x="80" y="849" width="152" height="30" fill="none" stroke="black" stroke-width="2"/><text xmlns="http://www.w3.org/2000/svg" x="84" y="867" width="152" height="30" style="text-anchor:left" font-size="12">sum = sum + miles[j][i];</text><polyline xmlns="http://www.w3.org/2000/svg" points="130,879,130,899&quot; fill=&quot;none&quot; stroke=&quot;black&quot; stroke-width=&quot;2&quot;/&gt;" fill="none" stroke="black" stroke-width="2"/><rect xmlns="http://www.w3.org/2000/svg" x="80" y="939" width="299" height="30" fill="none" stroke="black" stroke-width="2"/><text xmlns="http://www.w3.org/2000/svg" x="84" y="957" width="299" height="30" style="text-anchor:left" font-size="12">average_each_day[i] = sum / number_of_runners;</text><polyline xmlns="http://www.w3.org/2000/svg" points="130,969,130,989&quot; fill=&quot;none&quot; stroke=&quot;black&quot; stroke-width=&quot;2&quot;/&gt;" fill="none" stroke="black" stroke-width="2"/><rect xmlns="http://www.w3.org/2000/svg" x="80" y="1029" width="100" height="30" fill="none" stroke="black" stroke-width="2"/><text xmlns="http://www.w3.org/2000/svg" x="84" y="1047" width="100" height="30" style="text-anchor:left" font-size="12">sum = 0;</text><polyline xmlns="http://www.w3.org/2000/svg" points="130,1059,130,1079&quot; fill=&quot;none&quot; stroke=&quot;black&quot; stroke-width=&quot;2&quot;/&gt;" fill="none" stroke="black" stroke-width="2"/><polyline xmlns="http://www.w3.org/2000/svg" points="80,1079,222,1079,252,1094,222,1109,80,1109,80,1079&quot; fill=&quot;none&quot; stroke=&quot;black&quot; stroke-width=&quot;2&quot;/&gt;" fill="none" stroke="black" stroke-width="2"/><text xmlns="http://www.w3.org/2000/svg" x="158" y="1100" style="text-anchor:middle" font-size="12">for (int i = 0; i &lt; number_of_runners; i++)</text><polyline xmlns="http://www.w3.org/2000/svg" points="130,1109,130,1129&quot; fill=&quot;none&quot; stroke=&quot;black&quot; stroke-width=&quot;2&quot;/&gt;" fill="none" stroke="black" stroke-width="2"/><polyline xmlns="http://www.w3.org/2000/svg" points="252,1094,272,1094,272,1199,130,1199,130,1219&quot; fill=&quot;none&quot; stroke=&quot;black&quot; stroke-width=&quot;2&quot;/&gt;" fill="none" stroke="black" stroke-width="2"/><polyline xmlns="http://www.w3.org/2000/svg" points="272,1152,270,1146,274,1146,272,1152,272,1146&quot; fill=&quot;none&quot; stroke=&quot;black&quot; stroke-width=&quot;2&quot;/&gt;" fill="none" stroke="black" stroke-width="2"/><polyline xmlns="http://www.w3.org/2000/svg" points="130,1159,130,1179,60,1179,60,1094,80,1094&quot; fill=&quot;none&quot; stroke=&quot;black&quot; stroke-width=&quot;2&quot;/&gt;" fill="none" stroke="black" stroke-width="2"/><polyline xmlns="http://www.w3.org/2000/svg" points="60,1146,58,1152,62,1152,60,1146,60,1152&quot; fill=&quot;none&quot; stroke=&quot;black&quot; stroke-width=&quot;2&quot;/&gt;" fill="none" stroke="black" stroke-width="2"/><rect xmlns="http://www.w3.org/2000/svg" x="80" y="1129" width="172" height="30" fill="none" stroke="black" stroke-width="2"/><text xmlns="http://www.w3.org/2000/svg" x="84" y="1147" width="172" height="30" style="text-anchor:left" font-size="12">sum = sum + total_miles[i];</text><polyline xmlns="http://www.w3.org/2000/svg" points="130,1159,130,1179&quot; fill=&quot;none&quot; stroke=&quot;black&quot; stroke-width=&quot;2&quot;/&gt;" fill="none" stroke="black" stroke-width="2"/><rect xmlns="http://www.w3.org/2000/svg" x="80" y="1219" width="303" height="49" fill="none" stroke="black" stroke-width="2"/><text xmlns="http://www.w3.org/2000/svg" x="84" y="1235" width="303" height="49" style="text-anchor:left" font-size="12">average_each_day[7] = sum / number_of_runners;</text><text xmlns="http://www.w3.org/2000/svg" x="84" y="1247" width="303" height="49" style="text-anchor:left" font-size="12"></text><text xmlns="http://www.w3.org/2000/svg" x="84" y="1259" width="303" height="49" style="text-anchor:left" font-size="12">cout &lt;&lt; "Runner Name";</text><polyline xmlns="http://www.w3.org/2000/svg" points="130,1268,130,1288&quot; fill=&quot;none&quot; stroke=&quot;black&quot; stroke-width=&quot;2&quot;/&gt;" fill="none" stroke="black" stroke-width="2"/><polyline xmlns="http://www.w3.org/2000/svg" points="80,1288,268,1288,298,1303,268,1318,80,1318,80,1288&quot; fill=&quot;none&quot; stroke=&quot;black&quot; stroke-width=&quot;2&quot;/&gt;" fill="none" stroke="black" stroke-width="2"/><text xmlns="http://www.w3.org/2000/svg" x="182" y="1309" style="text-anchor:middle" font-size="12">for (int i = 0; i &lt; 7; i++)</text><polyline xmlns="http://www.w3.org/2000/svg" points="130,1318,130,1338&quot; fill=&quot;none&quot; stroke=&quot;black&quot; stroke-width=&quot;2&quot;/&gt;" fill="none" stroke="black" stroke-width="2"/><polyline xmlns="http://www.w3.org/2000/svg" points="298,1303,318,1303,318,1408,130,1408,130,1428&quot; fill=&quot;none&quot; stroke=&quot;black&quot; stroke-width=&quot;2&quot;/&gt;" fill="none" stroke="black" stroke-width="2"/><polyline xmlns="http://www.w3.org/2000/svg" points="318,1361,316,1355,320,1355,318,1361,318,1355&quot; fill=&quot;none&quot; stroke=&quot;black&quot; stroke-width=&quot;2&quot;/&gt;" fill="none" stroke="black" stroke-width="2"/><polyline xmlns="http://www.w3.org/2000/svg" points="130,1368,130,1388,60,1388,60,1303,80,1303&quot; fill=&quot;none&quot; stroke=&quot;black&quot; stroke-width=&quot;2&quot;/&gt;" fill="none" stroke="black" stroke-width="2"/><polyline xmlns="http://www.w3.org/2000/svg" points="60,1355,58,1361,62,1361,60,1355,60,1361&quot; fill=&quot;none&quot; stroke=&quot;black&quot; stroke-width=&quot;2&quot;/&gt;" fill="none" stroke="black" stroke-width="2"/><rect xmlns="http://www.w3.org/2000/svg" x="80" y="1338" width="218" height="30" fill="none" stroke="black" stroke-width="2"/><text xmlns="http://www.w3.org/2000/svg" x="84" y="1356" width="218" height="30" style="text-anchor:left" font-size="12">cout &lt;&lt; "\t"&lt;&lt; "Miles Day " &lt;&lt; i + 1;</text><polyline xmlns="http://www.w3.org/2000/svg" points="130,1368,130,1388&quot; fill=&quot;none&quot; stroke=&quot;black&quot; stroke-width=&quot;2&quot;/&gt;" fill="none" stroke="black" stroke-width="2"/><rect xmlns="http://www.w3.org/2000/svg" x="80" y="1428" width="220" height="30" fill="none" stroke="black" stroke-width="2"/><text xmlns="http://www.w3.org/2000/svg" x="84" y="1446" width="220" height="30" style="text-anchor:left" font-size="12">cout &lt;&lt; "\t"&lt;&lt; "Total Miles" &lt;&lt; endl;</text><polyline xmlns="http://www.w3.org/2000/svg" points="130,1458,130,1478&quot; fill=&quot;none&quot; stroke=&quot;black&quot; stroke-width=&quot;2&quot;/&gt;" fill="none" stroke="black" stroke-width="2"/><polyline xmlns="http://www.w3.org/2000/svg" points="80,1478,316,1478,346,1493,316,1508,80,1508,80,1478&quot; fill=&quot;none&quot; stroke=&quot;black&quot; stroke-width=&quot;2&quot;/&gt;" fill="none" stroke="black" stroke-width="2"/><text xmlns="http://www.w3.org/2000/svg" x="206" y="1499" style="text-anchor:middle" font-size="12">for (int i = 0; i &lt; number_of_runners; i++)</text><polyline xmlns="http://www.w3.org/2000/svg" points="130,1508,130,1528&quot; fill=&quot;none&quot; stroke=&quot;black&quot; stroke-width=&quot;2&quot;/&gt;" fill="none" stroke="black" stroke-width="2"/><polyline xmlns="http://www.w3.org/2000/svg" points="346,1493,366,1493,366,1788,130,1788,130,1808&quot; fill=&quot;none&quot; stroke=&quot;black&quot; stroke-width=&quot;2&quot;/&gt;" fill="none" stroke="black" stroke-width="2"/><polyline xmlns="http://www.w3.org/2000/svg" points="366,1646,364,1640,368,1640,366,1646,366,1640&quot; fill=&quot;none&quot; stroke=&quot;black&quot; stroke-width=&quot;2&quot;/&gt;" fill="none" stroke="black" stroke-width="2"/><polyline xmlns="http://www.w3.org/2000/svg" points="130,1748,130,1768,40,1768,40,1493,80,1493&quot; fill=&quot;none&quot; stroke=&quot;black&quot; stroke-width=&quot;2&quot;/&gt;" fill="none" stroke="black" stroke-width="2"/><polyline xmlns="http://www.w3.org/2000/svg" points="40,1640,38,1646,42,1646,40,1640,40,1646&quot; fill=&quot;none&quot; stroke=&quot;black&quot; stroke-width=&quot;2&quot;/&gt;" fill="none" stroke="black" stroke-width="2"/><rect xmlns="http://www.w3.org/2000/svg" x="80" y="1528" width="114" height="30" fill="none" stroke="black" stroke-width="2"/><text xmlns="http://www.w3.org/2000/svg" x="84" y="1546" width="114" height="30" style="text-anchor:left" font-size="12">cout &lt;&lt; name[i];</text><polyline xmlns="http://www.w3.org/2000/svg" points="130,1558,130,1578&quot; fill=&quot;none&quot; stroke=&quot;black&quot; stroke-width=&quot;2&quot;/&gt;" fill="none" stroke="black" stroke-width="2"/><polyline xmlns="http://www.w3.org/2000/svg" points="80,1578,248,1578,278,1593,248,1608,80,1608,80,1578&quot; fill=&quot;none&quot; stroke=&quot;black&quot; stroke-width=&quot;2&quot;/&gt;" fill="none" stroke="black" stroke-width="2"/><text xmlns="http://www.w3.org/2000/svg" x="172" y="1599" style="text-anchor:middle" font-size="12">for (int j = 0; j &lt; 7; j++)</text><polyline xmlns="http://www.w3.org/2000/svg" points="130,1608,130,1628&quot; fill=&quot;none&quot; stroke=&quot;black&quot; stroke-width=&quot;2&quot;/&gt;" fill="none" stroke="black" stroke-width="2"/><polyline xmlns="http://www.w3.org/2000/svg" points="278,1593,298,1593,298,1698,130,1698,130,1718&quot; fill=&quot;none&quot; stroke=&quot;black&quot; stroke-width=&quot;2&quot;/&gt;" fill="none" stroke="black" stroke-width="2"/><polyline xmlns="http://www.w3.org/2000/svg" points="298,1651,296,1645,300,1645,298,1651,298,1645&quot; fill=&quot;none&quot; stroke=&quot;black&quot; stroke-width=&quot;2&quot;/&gt;" fill="none" stroke="black" stroke-width="2"/><polyline xmlns="http://www.w3.org/2000/svg" points="130,1658,130,1678,60,1678,60,1593,80,1593&quot; fill=&quot;none&quot; stroke=&quot;black&quot; stroke-width=&quot;2&quot;/&gt;" fill="none" stroke="black" stroke-width="2"/><polyline xmlns="http://www.w3.org/2000/svg" points="60,1645,58,1651,62,1651,60,1645,60,1651&quot; fill=&quot;none&quot; stroke=&quot;black&quot; stroke-width=&quot;2&quot;/&gt;" fill="none" stroke="black" stroke-width="2"/><rect xmlns="http://www.w3.org/2000/svg" x="80" y="1628" width="198" height="30" fill="none" stroke="black" stroke-width="2"/><text xmlns="http://www.w3.org/2000/svg" x="84" y="1646" width="198" height="30" style="text-anchor:left" font-size="12">cout &lt;&lt; "\t            " &lt;&lt; miles[i][j];</text><polyline xmlns="http://www.w3.org/2000/svg" points="130,1658,130,1678&quot; fill=&quot;none&quot; stroke=&quot;black&quot; stroke-width=&quot;2&quot;/&gt;" fill="none" stroke="black" stroke-width="2"/><rect xmlns="http://www.w3.org/2000/svg" x="80" y="1718" width="266" height="30" fill="none" stroke="black" stroke-width="2"/><text xmlns="http://www.w3.org/2000/svg" x="84" y="1736" width="266" height="30" style="text-anchor:left" font-size="12">cout &lt;&lt; "\t             " &lt;&lt; total_miles[i] &lt;&lt; endl;</text><polyline xmlns="http://www.w3.org/2000/svg" points="130,1748,130,1768&quot; fill=&quot;none&quot; stroke=&quot;black&quot; stroke-width=&quot;2&quot;/&gt;" fill="none" stroke="black" stroke-width="2"/><rect xmlns="http://www.w3.org/2000/svg" x="80" y="1808" width="161" height="30" fill="none" stroke="black" stroke-width="2"/><text xmlns="http://www.w3.org/2000/svg" x="84" y="1826" width="161" height="30" style="text-anchor:left" font-size="12">cout &lt;&lt; "Average Miles";</text><polyline xmlns="http://www.w3.org/2000/svg" points="130,1838,130,1858&quot; fill=&quot;none&quot; stroke=&quot;black&quot; stroke-width=&quot;2&quot;/&gt;" fill="none" stroke="black" stroke-width="2"/><polyline xmlns="http://www.w3.org/2000/svg" points="80,1858,331,1858,361,1873,331,1888,80,1888,80,1858&quot; fill=&quot;none&quot; stroke=&quot;black&quot; stroke-width=&quot;2&quot;/&gt;" fill="none" stroke="black" stroke-width="2"/><text xmlns="http://www.w3.org/2000/svg" x="213" y="1879" style="text-anchor:middle" font-size="12">for (int i = 0; i &lt; 8; i++)</text><polyline xmlns="http://www.w3.org/2000/svg" points="130,1888,130,1908&quot; fill=&quot;none&quot; stroke=&quot;black&quot; stroke-width=&quot;2&quot;/&gt;" fill="none" stroke="black" stroke-width="2"/><polyline xmlns="http://www.w3.org/2000/svg" points="361,1873,381,1873,381,1978,130,1978,130,1998&quot; fill=&quot;none&quot; stroke=&quot;black&quot; stroke-width=&quot;2&quot;/&gt;" fill="none" stroke="black" stroke-width="2"/><polyline xmlns="http://www.w3.org/2000/svg" points="381,1931,380,1925,382,1925,381,1931,381,1925&quot; fill=&quot;none&quot; stroke=&quot;black&quot; stroke-width=&quot;2&quot;/&gt;" fill="none" stroke="black" stroke-width="2"/><polyline xmlns="http://www.w3.org/2000/svg" points="130,1938,130,1958,60,1958,60,1873,80,1873&quot; fill=&quot;none&quot; stroke=&quot;black&quot; stroke-width=&quot;2&quot;/&gt;" fill="none" stroke="black" stroke-width="2"/><polyline xmlns="http://www.w3.org/2000/svg" points="60,1925,58,1931,62,1931,60,1925,60,1931&quot; fill=&quot;none&quot; stroke=&quot;black&quot; stroke-width=&quot;2&quot;/&gt;" fill="none" stroke="black" stroke-width="2"/><rect xmlns="http://www.w3.org/2000/svg" x="80" y="1908" width="281" height="30" fill="none" stroke="black" stroke-width="2"/><text xmlns="http://www.w3.org/2000/svg" x="84" y="1926" width="281" height="30" style="text-anchor:left" font-size="12">cout &lt;&lt; "\t    "&lt;&lt; average_each_day[i] &lt;&lt; "     ";</text><polyline xmlns="http://www.w3.org/2000/svg" points="130,1938,130,1958&quot; fill=&quot;none&quot; stroke=&quot;black&quot; stroke-width=&quot;2&quot;/&gt;" fill="none" stroke="black" stroke-width="2"/><rect xmlns="http://www.w3.org/2000/svg" x="80" y="1998" width="100" height="30" fill="none" stroke="black" stroke-width="2"/><text xmlns="http://www.w3.org/2000/svg" x="84" y="2016" width="100" height="30" style="text-anchor:left" font-size="12">cout &lt;&lt; endl;</text><polyline xmlns="http://www.w3.org/2000/svg" points="130,2028,130,2048&quot; fill=&quot;none&quot; stroke=&quot;black&quot; stroke-width=&quot;2&quot;/&gt;" fill="none" stroke="black" stroke-width="2"/><polygon xmlns="http://www.w3.org/2000/svg" points="130,2687, 180,2717, 130,2747, 80,2717" fill="none" stroke="black" stroke-width="2"/><text xmlns="http://www.w3.org/2000/svg" x="130" y="2723" style="text-anchor:middle" font-size="12">(choice != "no")</text><polyline xmlns="http://www.w3.org/2000/svg" points="130,2747,130,2767&quot; fill=&quot;none&quot; stroke=&quot;black&quot; stroke-width=&quot;2&quot;/&gt;" fill="none" stroke="black" stroke-width="2"/><polyline xmlns="http://www.w3.org/2000/svg" points="180,2717,508,2717,508,2787,130,2787,130,2807&quot; fill=&quot;none&quot; stroke=&quot;black&quot; stroke-width=&quot;2&quot;/&gt;" fill="none" stroke="black" stroke-width="2"/><polyline xmlns="http://www.w3.org/2000/svg" points="508,2755,506,2749,510,2749,508,2755,508,2749&quot; fill=&quot;none&quot; stroke=&quot;black&quot; stroke-width=&quot;2&quot;/&gt;" fill="none" stroke="black" stroke-width="2"/><polyline xmlns="http://www.w3.org/2000/svg" points="130,2747,130,2767,20,2767,20,2048,130,2048,130,2068&quot; fill=&quot;none&quot; stroke=&quot;black&quot; stroke-width=&quot;2&quot;/&gt;" fill="none" stroke="black" stroke-width="2"/><polyline xmlns="http://www.w3.org/2000/svg" points="20,2404,18,2410,22,2410,20,2404,20,2410&quot; fill=&quot;none&quot; stroke=&quot;black&quot; stroke-width=&quot;2&quot;/&gt;" fill="none" stroke="black" stroke-width="2"/><rect xmlns="http://www.w3.org/2000/svg" x="80" y="2068" width="287" height="36" fill="none" stroke="black" stroke-width="2"/><text xmlns="http://www.w3.org/2000/svg" x="84" y="2083" width="287" height="36" style="text-anchor:left" font-size="12">cout &lt;&lt; "Which runner you want to search for: ";</text><text xmlns="http://www.w3.org/2000/svg" x="84" y="2095" width="287" height="36" style="text-anchor:left" font-size="12">cin &gt;&gt; search;</text><polyline xmlns="http://www.w3.org/2000/svg" points="130,2104,130,2124&quot; fill=&quot;none&quot; stroke=&quot;black&quot; stroke-width=&quot;2&quot;/&gt;" fill="none" stroke="black" stroke-width="2"/><polyline xmlns="http://www.w3.org/2000/svg" points="80,2124,438,2124,468,2139,438,2154,80,2154,80,2124&quot; fill=&quot;none&quot; stroke=&quot;black&quot; stroke-width=&quot;2&quot;/&gt;" fill="none" stroke="black" stroke-width="2"/><text xmlns="http://www.w3.org/2000/svg" x="266" y="2145" style="text-anchor:middle" font-size="12">for (int i = 0; i &lt; number_of_runners; i++)</text><polyline xmlns="http://www.w3.org/2000/svg" points="130,2154,130,2174&quot; fill=&quot;none&quot; stroke=&quot;black&quot; stroke-width=&quot;2&quot;/&gt;" fill="none" stroke="black" stroke-width="2"/><polyline xmlns="http://www.w3.org/2000/svg" points="468,2139,488,2139,488,2584,130,2584,130,2604&quot; fill=&quot;none&quot; stroke=&quot;black&quot; stroke-width=&quot;2&quot;/&gt;" fill="none" stroke="black" stroke-width="2"/><polyline xmlns="http://www.w3.org/2000/svg" points="488,2367,486,2361,490,2361,488,2367,488,2361&quot; fill=&quot;none&quot; stroke=&quot;black&quot; stroke-width=&quot;2&quot;/&gt;" fill="none" stroke="black" stroke-width="2"/><polyline xmlns="http://www.w3.org/2000/svg" points="130,2544,130,2564,40,2564,40,2139,80,2139&quot; fill=&quot;none&quot; stroke=&quot;black&quot; stroke-width=&quot;2&quot;/&gt;" fill="none" stroke="black" stroke-width="2"/><polyline xmlns="http://www.w3.org/2000/svg" points="40,2361,38,2367,42,2367,40,2361,40,2367&quot; fill=&quot;none&quot; stroke=&quot;black&quot; stroke-width=&quot;2&quot;/&gt;" fill="none" stroke="black" stroke-width="2"/><polygon xmlns="http://www.w3.org/2000/svg" points="130,2174, 180,2204, 130,2234, 80,2204" fill="none" stroke="black" stroke-width="2"/><text xmlns="http://www.w3.org/2000/svg" x="130" y="2210" style="text-anchor:middle" font-size="12">(search == name[i])</text><polyline xmlns="http://www.w3.org/2000/svg" points="130,2234,130,2254&quot; fill=&quot;none&quot; stroke=&quot;black&quot; stroke-width=&quot;2&quot;/&gt;" fill="none" stroke="black" stroke-width="2"/><polyline xmlns="http://www.w3.org/2000/svg" points="180,2204,468,2204,468,2544,130,2544,130,2564&quot; fill=&quot;none&quot; stroke=&quot;black&quot; stroke-width=&quot;2&quot;/&gt;" fill="none" stroke="black" stroke-width="2"/><polyline xmlns="http://www.w3.org/2000/svg" points="468,2372,466,2366,470,2366,468,2372,468,2366&quot; fill=&quot;none&quot; stroke=&quot;black&quot; stroke-width=&quot;2&quot;/&gt;" fill="none" stroke="black" stroke-width="2"/><polyline xmlns="http://www.w3.org/2000/svg" points="130,2544,130,2564&quot; fill=&quot;none&quot; stroke=&quot;black&quot; stroke-width=&quot;2&quot;/&gt;" fill="none" stroke="black" stroke-width="2"/><rect xmlns="http://www.w3.org/2000/svg" x="80" y="2254" width="272" height="30" fill="none" stroke="black" stroke-width="2"/><text xmlns="http://www.w3.org/2000/svg" x="84" y="2272" width="272" height="30" style="text-anchor:left" font-size="12">cout &lt;&lt; "Runner Name: " &lt;&lt; name[i] &lt;&lt; endl;</text><polyline xmlns="http://www.w3.org/2000/svg" points="130,2284,130,2304&quot; fill=&quot;none&quot; stroke=&quot;black&quot; stroke-width=&quot;2&quot;/&gt;" fill="none" stroke="black" stroke-width="2"/><polyline xmlns="http://www.w3.org/2000/svg" points="80,2304,398,2304,428,2319,398,2334,80,2334,80,2304&quot; fill=&quot;none&quot; stroke=&quot;black&quot; stroke-width=&quot;2&quot;/&gt;" fill="none" stroke="black" stroke-width="2"/><text xmlns="http://www.w3.org/2000/svg" x="246" y="2325" style="text-anchor:middle" font-size="12">for (int j = 0; j &lt; 7; j++)</text><polyline xmlns="http://www.w3.org/2000/svg" points="130,2334,130,2354&quot; fill=&quot;none&quot; stroke=&quot;black&quot; stroke-width=&quot;2&quot;/&gt;" fill="none" stroke="black" stroke-width="2"/><polyline xmlns="http://www.w3.org/2000/svg" points="428,2319,448,2319,448,2424,130,2424,130,2444&quot; fill=&quot;none&quot; stroke=&quot;black&quot; stroke-width=&quot;2&quot;/&gt;" fill="none" stroke="black" stroke-width="2"/><polyline xmlns="http://www.w3.org/2000/svg" points="448,2377,446,2371,450,2371,448,2377,448,2371&quot; fill=&quot;none&quot; stroke=&quot;black&quot; stroke-width=&quot;2&quot;/&gt;" fill="none" stroke="black" stroke-width="2"/><polyline xmlns="http://www.w3.org/2000/svg" points="130,2384,130,2404,60,2404,60,2319,80,2319&quot; fill=&quot;none&quot; stroke=&quot;black&quot; stroke-width=&quot;2&quot;/&gt;" fill="none" stroke="black" stroke-width="2"/><polyline xmlns="http://www.w3.org/2000/svg" points="60,2371,58,2377,62,2377,60,2371,60,2377&quot; fill=&quot;none&quot; stroke=&quot;black&quot; stroke-width=&quot;2&quot;/&gt;" fill="none" stroke="black" stroke-width="2"/><rect xmlns="http://www.w3.org/2000/svg" x="80" y="2354" width="348" height="30" fill="none" stroke="black" stroke-width="2"/><text xmlns="http://www.w3.org/2000/svg" x="84" y="2372" width="348" height="30" style="text-anchor:left" font-size="12">cout &lt;&lt; "Miles in Day " &lt;&lt; j + 1 &lt;&lt; ": " &lt;&lt; miles[i][j] &lt;&lt; endl;</text><polyline xmlns="http://www.w3.org/2000/svg" points="130,2384,130,2404&quot; fill=&quot;none&quot; stroke=&quot;black&quot; stroke-width=&quot;2&quot;/&gt;" fill="none" stroke="black" stroke-width="2"/><rect xmlns="http://www.w3.org/2000/svg" x="80" y="2444" width="283" height="30" fill="none" stroke="black" stroke-width="2"/><text xmlns="http://www.w3.org/2000/svg" x="84" y="2462" width="283" height="30" style="text-anchor:left" font-size="12">cout &lt;&lt; "Total Miles: " &lt;&lt; total_miles[i] &lt;&lt; endl;</text><polyline xmlns="http://www.w3.org/2000/svg" points="130,2474,130,2494&quot; fill=&quot;none&quot; stroke=&quot;black&quot; stroke-width=&quot;2&quot;/&gt;" fill="none" stroke="black" stroke-width="2"/><rect xmlns="http://www.w3.org/2000/svg" x="80" y="2494" width="100" height="30" fill="none" stroke="black" stroke-width="2"/><text xmlns="http://www.w3.org/2000/svg" x="130" y="2515" style="text-anchor:middle" font-size="12">Goto</text><polyline xmlns="http://www.w3.org/2000/svg" points="130,2524,130,2544&quot; fill=&quot;none&quot; stroke=&quot;black&quot; stroke-width=&quot;2&quot;/&gt;" fill="none" stroke="black" stroke-width="2"/><rect xmlns="http://www.w3.org/2000/svg" x="80" y="2604" width="379" height="63" fill="none" stroke="black" stroke-width="2"/><text xmlns="http://www.w3.org/2000/svg" x="84" y="2621" width="379" height="63" style="text-anchor:left" font-size="12">cout &lt;&lt; "Sorry " &lt;&lt; search &lt;&lt; " is not found. Try again!!" &lt;&lt; endl;</text><text xmlns="http://www.w3.org/2000/svg" x="84" y="2633" width="379" height="63" style="text-anchor:left" font-size="12">label:</text><text xmlns="http://www.w3.org/2000/svg" x="84" y="2645" width="379" height="63" style="text-anchor:left" font-size="12">cout &lt;&lt; "Do you want to search again (yes/no): ";</text><text xmlns="http://www.w3.org/2000/svg" x="84" y="2657" width="379" height="63" style="text-anchor:left" font-size="12">cin &gt;&gt; choice;</text><polyline xmlns="http://www.w3.org/2000/svg" points="130,2667,130,2687&quot; fill=&quot;none&quot; stroke=&quot;black&quot; stroke-width=&quot;2&quot;/&gt;" fill="none" stroke="black" stroke-width="2"/><rect xmlns="http://www.w3.org/2000/svg" x="80" y="2807" width="100" height="30" fill="none" stroke="black" stroke-width="2"/><text xmlns="http://www.w3.org/2000/svg" x="130" y="2828" style="text-anchor:middle" font-size="12">Return</text><polyline xmlns="http://www.w3.org/2000/svg" points="130,2837,130,2857&quot; fill=&quot;none&quot; stroke=&quot;black&quot; stroke-width=&quot;2&quot;/&gt;" fill="none" stroke="black" stroke-width="2"/></svg>
