<?xml version="1.0" encoding="UTF-8"?>
<svg width="618" height="1677" xmlns="http://www.w3.org/2000/svg"><rect xmlns="http://www.w3.org/2000/svg" x="72" y="20" width="75" height="30" rx="15" ry="15" fill="none" stroke="black" stroke-width="2"/><text xmlns="http://www.w3.org/2000/svg" x="110" y="42" style="text-anchor:middle" font-size="12">START</text><polyline xmlns="http://www.w3.org/2000/svg" points="110,50,110,70&quot; fill=&quot;none&quot; stroke=&quot;black&quot; stroke-width=&quot;2&quot;/&gt;" fill="none" stroke="black" stroke-width="2"/><rect xmlns="http://www.w3.org/2000/svg" x="72" y="1623" width="75" height="30" rx="15" ry="15" fill="none" stroke="black" stroke-width="2"/><text xmlns="http://www.w3.org/2000/svg" x="110" y="1646" style="text-anchor:middle" font-size="12">END</text><rect xmlns="http://www.w3.org/2000/svg" x="60" y="70" width="160" height="63" fill="none" stroke="black" stroke-width="2"/><text xmlns="http://www.w3.org/2000/svg" x="64" y="87" width="160" height="63" style="text-anchor:left" font-size="12">int number1, number;</text><text xmlns="http://www.w3.org/2000/svg" x="64" y="99" width="160" height="63" style="text-anchor:left" font-size="12">cout &lt;&lt;"Enter number: ";</text><text xmlns="http://www.w3.org/2000/svg" x="64" y="111" width="160" height="63" style="text-anchor:left" font-size="12">cin &gt;&gt; number;</text><text xmlns="http://www.w3.org/2000/svg" x="64" y="123" width="160" height="63" style="text-anchor:left" font-size="12">number1 = number + 1;</text><polyline xmlns="http://www.w3.org/2000/svg" points="110,133,110,153&quot; fill=&quot;none&quot; stroke=&quot;black&quot; stroke-width=&quot;2&quot;/&gt;" fill="none" stroke="black" stroke-width="2"/><polygon xmlns="http://www.w3.org/2000/svg" points="110,153, 160,183, 110,213, 60,183" fill="none" stroke="black" stroke-width="2"/><text xmlns="http://www.w3.org/2000/svg" x="110" y="189" style="text-anchor:middle" font-size="12">(number &gt;= 1)</text><polyline xmlns="http://www.w3.org/2000/svg" points="110,213,110,233&quot; fill=&quot;none&quot; stroke=&quot;black&quot; stroke-width=&quot;2&quot;/&gt;" fill="none" stroke="black" stroke-width="2"/><polyline xmlns="http://www.w3.org/2000/svg" points="160,183,309,183,309,233&quot; fill=&quot;none&quot; stroke=&quot;black&quot; stroke-width=&quot;2&quot;/&gt;" fill="none" stroke="black" stroke-width="2"/><polyline xmlns="http://www.w3.org/2000/svg" points="309,283,309,1553,110,1553,110,1573&quot; fill=&quot;none&quot; stroke=&quot;black&quot; stroke-width=&quot;2&quot;/&gt;" fill="none" stroke="black" stroke-width="2"/><polyline xmlns="http://www.w3.org/2000/svg" points="110,1553,110,1573&quot; fill=&quot;none&quot; stroke=&quot;black&quot; stroke-width=&quot;2&quot;/&gt;" fill="none" stroke="black" stroke-width="2"/><polyline xmlns="http://www.w3.org/2000/svg" points="60,233,189,233,219,248,189,263,60,263,60,233&quot; fill=&quot;none&quot; stroke=&quot;black&quot; stroke-width=&quot;2&quot;/&gt;" fill="none" stroke="black" stroke-width="2"/><text xmlns="http://www.w3.org/2000/svg" x="132" y="254" style="text-anchor:middle" font-size="12">for (int i = number1 ; i &gt; 1; --i)</text><polyline xmlns="http://www.w3.org/2000/svg" points="110,263,110,283&quot; fill=&quot;none&quot; stroke=&quot;black&quot; stroke-width=&quot;2&quot;/&gt;" fill="none" stroke="black" stroke-width="2"/><polyline xmlns="http://www.w3.org/2000/svg" points="219,248,239,248,239,923,110,923,110,943&quot; fill=&quot;none&quot; stroke=&quot;black&quot; stroke-width=&quot;2&quot;/&gt;" fill="none" stroke="black" stroke-width="2"/><polyline xmlns="http://www.w3.org/2000/svg" points="239,591,238,585,240,585,239,591,239,585&quot; fill=&quot;none&quot; stroke=&quot;black&quot; stroke-width=&quot;2&quot;/&gt;" fill="none" stroke="black" stroke-width="2"/><polyline xmlns="http://www.w3.org/2000/svg" points="110,883,110,903,20,903,20,248,60,248&quot; fill=&quot;none&quot; stroke=&quot;black&quot; stroke-width=&quot;2&quot;/&gt;" fill="none" stroke="black" stroke-width="2"/><polyline xmlns="http://www.w3.org/2000/svg" points="20,585,18,591,22,591,20,585,20,591&quot; fill=&quot;none&quot; stroke=&quot;black&quot; stroke-width=&quot;2&quot;/&gt;" fill="none" stroke="black" stroke-width="2"/><polyline xmlns="http://www.w3.org/2000/svg" points="60,283,169,283,199,298,169,313,60,313,60,283&quot; fill=&quot;none&quot; stroke=&quot;black&quot; stroke-width=&quot;2&quot;/&gt;" fill="none" stroke="black" stroke-width="2"/><text xmlns="http://www.w3.org/2000/svg" x="122" y="304" style="text-anchor:middle" font-size="12">for (int j = i, k = number1; j &gt;= 1; --j, --k)</text><polyline xmlns="http://www.w3.org/2000/svg" points="110,313,110,333&quot; fill=&quot;none&quot; stroke=&quot;black&quot; stroke-width=&quot;2&quot;/&gt;" fill="none" stroke="black" stroke-width="2"/><polyline xmlns="http://www.w3.org/2000/svg" points="199,298,219,298,219,403,110,403,110,423&quot; fill=&quot;none&quot; stroke=&quot;black&quot; stroke-width=&quot;2&quot;/&gt;" fill="none" stroke="black" stroke-width="2"/><polyline xmlns="http://www.w3.org/2000/svg" points="219,356,218,350,220,350,219,356,219,350&quot; fill=&quot;none&quot; stroke=&quot;black&quot; stroke-width=&quot;2&quot;/&gt;" fill="none" stroke="black" stroke-width="2"/><polyline xmlns="http://www.w3.org/2000/svg" points="110,363,110,383,40,383,40,298,60,298&quot; fill=&quot;none&quot; stroke=&quot;black&quot; stroke-width=&quot;2&quot;/&gt;" fill="none" stroke="black" stroke-width="2"/><polyline xmlns="http://www.w3.org/2000/svg" points="40,350,38,356,42,356,40,350,40,356&quot; fill=&quot;none&quot; stroke=&quot;black&quot; stroke-width=&quot;2&quot;/&gt;" fill="none" stroke="black" stroke-width="2"/><rect xmlns="http://www.w3.org/2000/svg" x="60" y="333" width="139" height="30" fill="none" stroke="black" stroke-width="2"/><text xmlns="http://www.w3.org/2000/svg" x="64" y="351" width="139" height="30" style="text-anchor:left" font-size="12">cout &lt;&lt; number1 - k;</text><polyline xmlns="http://www.w3.org/2000/svg" points="110,363,110,383&quot; fill=&quot;none&quot; stroke=&quot;black&quot; stroke-width=&quot;2&quot;/&gt;" fill="none" stroke="black" stroke-width="2"/><polyline xmlns="http://www.w3.org/2000/svg" points="60,423,130,423,160,438,130,453,60,453,60,423&quot; fill=&quot;none&quot; stroke=&quot;black&quot; stroke-width=&quot;2&quot;/&gt;" fill="none" stroke="black" stroke-width="2"/><text xmlns="http://www.w3.org/2000/svg" x="102" y="444" style="text-anchor:middle" font-size="12">for (int m = 1; m &lt;= number1 - i; ++m)</text><polyline xmlns="http://www.w3.org/2000/svg" points="110,453,110,473&quot; fill=&quot;none&quot; stroke=&quot;black&quot; stroke-width=&quot;2&quot;/&gt;" fill="none" stroke="black" stroke-width="2"/><polyline xmlns="http://www.w3.org/2000/svg" points="160,438,180,438,180,543,110,543,110,563&quot; fill=&quot;none&quot; stroke=&quot;black&quot; stroke-width=&quot;2&quot;/&gt;" fill="none" stroke="black" stroke-width="2"/><polyline xmlns="http://www.w3.org/2000/svg" points="180,496,178,490,182,490,180,496,180,490&quot; fill=&quot;none&quot; stroke=&quot;black&quot; stroke-width=&quot;2&quot;/&gt;" fill="none" stroke="black" stroke-width="2"/><polyline xmlns="http://www.w3.org/2000/svg" points="110,503,110,523,40,523,40,438,60,438&quot; fill=&quot;none&quot; stroke=&quot;black&quot; stroke-width=&quot;2&quot;/&gt;" fill="none" stroke="black" stroke-width="2"/><polyline xmlns="http://www.w3.org/2000/svg" points="40,490,38,496,42,496,40,490,40,496&quot; fill=&quot;none&quot; stroke=&quot;black&quot; stroke-width=&quot;2&quot;/&gt;" fill="none" stroke="black" stroke-width="2"/><rect xmlns="http://www.w3.org/2000/svg" x="60" y="473" width="100" height="30" fill="none" stroke="black" stroke-width="2"/><text xmlns="http://www.w3.org/2000/svg" x="64" y="491" width="100" height="30" style="text-anchor:left" font-size="12">cout &lt;&lt;"  ";</text><polyline xmlns="http://www.w3.org/2000/svg" points="110,503,110,523&quot; fill=&quot;none&quot; stroke=&quot;black&quot; stroke-width=&quot;2&quot;/&gt;" fill="none" stroke="black" stroke-width="2"/><polyline xmlns="http://www.w3.org/2000/svg" points="60,563,150,563,180,578,150,593,60,593,60,563&quot; fill=&quot;none&quot; stroke=&quot;black&quot; stroke-width=&quot;2&quot;/&gt;" fill="none" stroke="black" stroke-width="2"/><text xmlns="http://www.w3.org/2000/svg" x="112" y="584" style="text-anchor:middle" font-size="12">for (int l = i; l &gt;= 1; --l)</text><polyline xmlns="http://www.w3.org/2000/svg" points="110,593,110,613&quot; fill=&quot;none&quot; stroke=&quot;black&quot; stroke-width=&quot;2&quot;/&gt;" fill="none" stroke="black" stroke-width="2"/><polyline xmlns="http://www.w3.org/2000/svg" points="180,578,200,578,200,833,110,833,110,853&quot; fill=&quot;none&quot; stroke=&quot;black&quot; stroke-width=&quot;2&quot;/&gt;" fill="none" stroke="black" stroke-width="2"/><polyline xmlns="http://www.w3.org/2000/svg" points="200,711,198,705,202,705,200,711,200,705&quot; fill=&quot;none&quot; stroke=&quot;black&quot; stroke-width=&quot;2&quot;/&gt;" fill="none" stroke="black" stroke-width="2"/><polyline xmlns="http://www.w3.org/2000/svg" points="110,793,110,813,40,813,40,578,60,578&quot; fill=&quot;none&quot; stroke=&quot;black&quot; stroke-width=&quot;2&quot;/&gt;" fill="none" stroke="black" stroke-width="2"/><polyline xmlns="http://www.w3.org/2000/svg" points="40,705,38,711,42,711,40,705,40,711&quot; fill=&quot;none&quot; stroke=&quot;black&quot; stroke-width=&quot;2&quot;/&gt;" fill="none" stroke="black" stroke-width="2"/><polygon xmlns="http://www.w3.org/2000/svg" points="110,613, 160,643, 110,673, 60,643" fill="none" stroke="black" stroke-width="2"/><text xmlns="http://www.w3.org/2000/svg" x="110" y="649" style="text-anchor:middle" font-size="12">(l == i)</text><polyline xmlns="http://www.w3.org/2000/svg" points="110,673,110,693&quot; fill=&quot;none&quot; stroke=&quot;black&quot; stroke-width=&quot;2&quot;/&gt;" fill="none" stroke="black" stroke-width="2"/><polyline xmlns="http://www.w3.org/2000/svg" points="160,643,180,643,180,743,110,743,110,763&quot; fill=&quot;none&quot; stroke=&quot;black&quot; stroke-width=&quot;2&quot;/&gt;" fill="none" stroke="black" stroke-width="2"/><polyline xmlns="http://www.w3.org/2000/svg" points="180,691,178,685,182,685,180,691,180,685&quot; fill=&quot;none&quot; stroke=&quot;black&quot; stroke-width=&quot;2&quot;/&gt;" fill="none" stroke="black" stroke-width="2"/><polyline xmlns="http://www.w3.org/2000/svg" points="110,743,110,763&quot; fill=&quot;none&quot; stroke=&quot;black&quot; stroke-width=&quot;2&quot;/&gt;" fill="none" stroke="black" stroke-width="2"/><rect xmlns="http://www.w3.org/2000/svg" x="60" y="693" width="100" height="30" fill="none" stroke="black" stroke-width="2"/><text xmlns="http://www.w3.org/2000/svg" x="110" y="714" style="text-anchor:middle" font-size="12">YES</text><polyline xmlns="http://www.w3.org/2000/svg" points="110,723,110,743&quot; fill=&quot;none&quot; stroke=&quot;black&quot; stroke-width=&quot;2&quot;/&gt;" fill="none" stroke="black" stroke-width="2"/><rect xmlns="http://www.w3.org/2000/svg" x="60" y="763" width="100" height="30" fill="none" stroke="black" stroke-width="2"/><text xmlns="http://www.w3.org/2000/svg" x="64" y="781" width="100" height="30" style="text-anchor:left" font-size="12">cout &lt;&lt; -1+l;</text><polyline xmlns="http://www.w3.org/2000/svg" points="110,793,110,813&quot; fill=&quot;none&quot; stroke=&quot;black&quot; stroke-width=&quot;2&quot;/&gt;" fill="none" stroke="black" stroke-width="2"/><rect xmlns="http://www.w3.org/2000/svg" x="60" y="853" width="130" height="30" fill="none" stroke="black" stroke-width="2"/><text xmlns="http://www.w3.org/2000/svg" x="64" y="871" width="130" height="30" style="text-anchor:left" font-size="12">cout &lt;&lt; " " &lt;&lt; endl;</text><polyline xmlns="http://www.w3.org/2000/svg" points="110,883,110,903&quot; fill=&quot;none&quot; stroke=&quot;black&quot; stroke-width=&quot;2&quot;/&gt;" fill="none" stroke="black" stroke-width="2"/><polyline xmlns="http://www.w3.org/2000/svg" points="60,943,160,943,190,958,160,973,60,973,60,943&quot; fill=&quot;none&quot; stroke=&quot;black&quot; stroke-width=&quot;2&quot;/&gt;" fill="none" stroke="black" stroke-width="2"/><text xmlns="http://www.w3.org/2000/svg" x="118" y="964" style="text-anchor:middle" font-size="12">for (int i = 1; i &lt;= number1; ++i)</text><polyline xmlns="http://www.w3.org/2000/svg" points="110,973,110,993&quot; fill=&quot;none&quot; stroke=&quot;black&quot; stroke-width=&quot;2&quot;/&gt;" fill="none" stroke="black" stroke-width="2"/><polyline xmlns="http://www.w3.org/2000/svg" points="190,958,210,958,210,1533,110,1533,110,1553&quot; fill=&quot;none&quot; stroke=&quot;black&quot; stroke-width=&quot;2&quot;/&gt;" fill="none" stroke="black" stroke-width="2"/><polyline xmlns="http://www.w3.org/2000/svg" points="210,1251,208,1245,212,1245,210,1251,210,1245&quot; fill=&quot;none&quot; stroke=&quot;black&quot; stroke-width=&quot;2&quot;/&gt;" fill="none" stroke="black" stroke-width="2"/><polyline xmlns="http://www.w3.org/2000/svg" points="110,1493,110,1513,20,1513,20,958,60,958&quot; fill=&quot;none&quot; stroke=&quot;black&quot; stroke-width=&quot;2&quot;/&gt;" fill="none" stroke="black" stroke-width="2"/><polyline xmlns="http://www.w3.org/2000/svg" points="20,1245,18,1251,22,1251,20,1245,20,1251&quot; fill=&quot;none&quot; stroke=&quot;black&quot; stroke-width=&quot;2&quot;/&gt;" fill="none" stroke="black" stroke-width="2"/><polyline xmlns="http://www.w3.org/2000/svg" points="60,993,130,993,160,1008,130,1023,60,1023,60,993&quot; fill=&quot;none&quot; stroke=&quot;black&quot; stroke-width=&quot;2&quot;/&gt;" fill="none" stroke="black" stroke-width="2"/><text xmlns="http://www.w3.org/2000/svg" x="102" y="1014" style="text-anchor:middle" font-size="12">for (int j = 1; j &lt;= i; ++j)</text><polyline xmlns="http://www.w3.org/2000/svg" points="110,1023,110,1043&quot; fill=&quot;none&quot; stroke=&quot;black&quot; stroke-width=&quot;2&quot;/&gt;" fill="none" stroke="black" stroke-width="2"/><polyline xmlns="http://www.w3.org/2000/svg" points="160,1008,180,1008,180,1113,110,1113,110,1133&quot; fill=&quot;none&quot; stroke=&quot;black&quot; stroke-width=&quot;2&quot;/&gt;" fill="none" stroke="black" stroke-width="2"/><polyline xmlns="http://www.w3.org/2000/svg" points="180,1066,178,1060,182,1060,180,1066,180,1060&quot; fill=&quot;none&quot; stroke=&quot;black&quot; stroke-width=&quot;2&quot;/&gt;" fill="none" stroke="black" stroke-width="2"/><polyline xmlns="http://www.w3.org/2000/svg" points="110,1073,110,1093,40,1093,40,1008,60,1008&quot; fill=&quot;none&quot; stroke=&quot;black&quot; stroke-width=&quot;2&quot;/&gt;" fill="none" stroke="black" stroke-width="2"/><polyline xmlns="http://www.w3.org/2000/svg" points="40,1060,38,1066,42,1066,40,1060,40,1066&quot; fill=&quot;none&quot; stroke=&quot;black&quot; stroke-width=&quot;2&quot;/&gt;" fill="none" stroke="black" stroke-width="2"/><rect xmlns="http://www.w3.org/2000/svg" x="60" y="1043" width="100" height="30" fill="none" stroke="black" stroke-width="2"/><text xmlns="http://www.w3.org/2000/svg" x="64" y="1061" width="100" height="30" style="text-anchor:left" font-size="12">cout &lt;&lt; j-1;</text><polyline xmlns="http://www.w3.org/2000/svg" points="110,1073,110,1093&quot; fill=&quot;none&quot; stroke=&quot;black&quot; stroke-width=&quot;2&quot;/&gt;" fill="none" stroke="black" stroke-width="2"/><polyline xmlns="http://www.w3.org/2000/svg" points="60,1133,130,1133,160,1148,130,1163,60,1163,60,1133&quot; fill=&quot;none&quot; stroke=&quot;black&quot; stroke-width=&quot;2&quot;/&gt;" fill="none" stroke="black" stroke-width="2"/><text xmlns="http://www.w3.org/2000/svg" x="102" y="1154" style="text-anchor:middle" font-size="12">for (int k = number1 - 1; k &gt;= i; --k)</text><polyline xmlns="http://www.w3.org/2000/svg" points="110,1163,110,1183&quot; fill=&quot;none&quot; stroke=&quot;black&quot; stroke-width=&quot;2&quot;/&gt;" fill="none" stroke="black" stroke-width="2"/><polyline xmlns="http://www.w3.org/2000/svg" points="160,1148,180,1148,180,1253,110,1253,110,1273&quot; fill=&quot;none&quot; stroke=&quot;black&quot; stroke-width=&quot;2&quot;/&gt;" fill="none" stroke="black" stroke-width="2"/><polyline xmlns="http://www.w3.org/2000/svg" points="180,1206,178,1200,182,1200,180,1206,180,1200&quot; fill=&quot;none&quot; stroke=&quot;black&quot; stroke-width=&quot;2&quot;/&gt;" fill="none" stroke="black" stroke-width="2"/><polyline xmlns="http://www.w3.org/2000/svg" points="110,1213,110,1233,40,1233,40,1148,60,1148&quot; fill=&quot;none&quot; stroke=&quot;black&quot; stroke-width=&quot;2&quot;/&gt;" fill="none" stroke="black" stroke-width="2"/><polyline xmlns="http://www.w3.org/2000/svg" points="40,1200,38,1206,42,1206,40,1200,40,1206&quot; fill=&quot;none&quot; stroke=&quot;black&quot; stroke-width=&quot;2&quot;/&gt;" fill="none" stroke="black" stroke-width="2"/><rect xmlns="http://www.w3.org/2000/svg" x="60" y="1183" width="100" height="30" fill="none" stroke="black" stroke-width="2"/><text xmlns="http://www.w3.org/2000/svg" x="64" y="1201" width="100" height="30" style="text-anchor:left" font-size="12">cout &lt;&lt; "  ";</text><polyline xmlns="http://www.w3.org/2000/svg" points="110,1213,110,1233&quot; fill=&quot;none&quot; stroke=&quot;black&quot; stroke-width=&quot;2&quot;/&gt;" fill="none" stroke="black" stroke-width="2"/><polyline xmlns="http://www.w3.org/2000/svg" points="60,1273,130,1273,160,1288,130,1303,60,1303,60,1273&quot; fill=&quot;none&quot; stroke=&quot;black&quot; stroke-width=&quot;2&quot;/&gt;" fill="none" stroke="black" stroke-width="2"/><text xmlns="http://www.w3.org/2000/svg" x="102" y="1294" style="text-anchor:middle" font-size="12">for (int l = 1, m = number1 - 1; l &lt;= i; ++l,--m )</text><polyline xmlns="http://www.w3.org/2000/svg" points="110,1303,110,1323&quot; fill=&quot;none&quot; stroke=&quot;black&quot; stroke-width=&quot;2&quot;/&gt;" fill="none" stroke="black" stroke-width="2"/><polyline xmlns="http://www.w3.org/2000/svg" points="160,1288,180,1288,180,1443,110,1443,110,1463&quot; fill=&quot;none&quot; stroke=&quot;black&quot; stroke-width=&quot;2&quot;/&gt;" fill="none" stroke="black" stroke-width="2"/><polyline xmlns="http://www.w3.org/2000/svg" points="180,1371,178,1365,182,1365,180,1371,180,1365&quot; fill=&quot;none&quot; stroke=&quot;black&quot; stroke-width=&quot;2&quot;/&gt;" fill="none" stroke="black" stroke-width="2"/><polyline xmlns="http://www.w3.org/2000/svg" points="110,1403,110,1423,40,1423,40,1288,60,1288&quot; fill=&quot;none&quot; stroke=&quot;black&quot; stroke-width=&quot;2&quot;/&gt;" fill="none" stroke="black" stroke-width="2"/><polyline xmlns="http://www.w3.org/2000/svg" points="40,1365,38,1371,42,1371,40,1365,40,1371&quot; fill=&quot;none&quot; stroke=&quot;black&quot; stroke-width=&quot;2&quot;/&gt;" fill="none" stroke="black" stroke-width="2"/><rect xmlns="http://www.w3.org/2000/svg" x="60" y="1323" width="100" height="30" fill="none" stroke="black" stroke-width="2"/><text xmlns="http://www.w3.org/2000/svg" x="110" y="1344" style="text-anchor:middle" font-size="12">IF</text><polyline xmlns="http://www.w3.org/2000/svg" points="110,1353,110,1373&quot; fill=&quot;none&quot; stroke=&quot;black&quot; stroke-width=&quot;2&quot;/&gt;" fill="none" stroke="black" stroke-width="2"/><rect xmlns="http://www.w3.org/2000/svg" x="60" y="1373" width="100" height="30" fill="none" stroke="black" stroke-width="2"/><text xmlns="http://www.w3.org/2000/svg" x="64" y="1391" width="100" height="30" style="text-anchor:left" font-size="12">cout&lt;&lt; i-l;</text><polyline xmlns="http://www.w3.org/2000/svg" points="110,1403,110,1423&quot; fill=&quot;none&quot; stroke=&quot;black&quot; stroke-width=&quot;2&quot;/&gt;" fill="none" stroke="black" stroke-width="2"/><rect xmlns="http://www.w3.org/2000/svg" x="60" y="1463" width="130" height="30" fill="none" stroke="black" stroke-width="2"/><text xmlns="http://www.w3.org/2000/svg" x="64" y="1481" width="130" height="30" style="text-anchor:left" font-size="12">cout &lt;&lt; " " &lt;&lt; endl;</text><polyline xmlns="http://www.w3.org/2000/svg" points="110,1493,110,1513&quot; fill=&quot;none&quot; stroke=&quot;black&quot; stroke-width=&quot;2&quot;/&gt;" fill="none" stroke="black" stroke-width="2"/><rect xmlns="http://www.w3.org/2000/svg" x="259" y="233" width="339" height="30" fill="none" stroke="black" stroke-width="2"/><text xmlns="http://www.w3.org/2000/svg" x="263" y="251" width="339" height="30" style="text-anchor:left" font-size="12">cout &lt;&lt; "ERROR!. You can't input less than one" &lt;&lt; endl;</text><polyline xmlns="http://www.w3.org/2000/svg" points="309,263,309,283&quot; fill=&quot;none&quot; stroke=&quot;black&quot; stroke-width=&quot;2&quot;/&gt;" fill="none" stroke="black" stroke-width="2"/><rect xmlns="http://www.w3.org/2000/svg" x="60" y="1573" width="100" height="30" fill="none" stroke="black" stroke-width="2"/><text xmlns="http://www.w3.org/2000/svg" x="110" y="1594" style="text-anchor:middle" font-size="12">Return</text><polyline xmlns="http://www.w3.org/2000/svg" points="110,1603,110,1623&quot; fill=&quot;none&quot; stroke=&quot;black&quot; stroke-width=&quot;2&quot;/&gt;" fill="none" stroke="black" stroke-width="2"/></svg>
